<svg class="diagram-root" style="background: white" xmlns="http://www.w3.org/2000/svg" xmlns:xlink="http://www.w3.org/1999/xlink"><style>.diagram-root { font-family: "Helvetica Neue", sans-serif; font-size: 12px; } .t { overflow: visible; } .t-bg { y: 40; fill: white; stroke: #323c46; stroke-width: 2; } .th { fill: white; stroke: #323c46; stroke-width: 2; } .tht { fill: #323c46; font-size: 14px; font-weight: bold; } .tf { fill: #323c46; overflow: visible; } .tf.pk { fill: #323c46; font-weight: bold; } .tf.fk { font-weight: bold; } .ty { fill: #323c46; font-weight: normal; text-anchor: end; } .r { fill: transparent; stroke: #4e4e4e; stroke-width: 1; } .l { stroke: 1; } .i { fill: #a0a0a0; stroke: #a0a0a0; } .i.ix { fill: #a0a0a0; stroke: #000; } .fa { fill: transparent; overflow: visible; } .fa .bg.hover { fill: #f3f3f3; } .c { cy: 12; r: 4; stroke: #424242; fill: #424242; } .hr { fill: transparent; stroke: #323c46; stroke-opacity: 0.035; stroke-width: 13; } .dc { stroke: #fa5a3c; fill: #fa5a3c; } .x { stroke: white; stroke-width: 1; } .hl .th { fill: #323c46; } .hl .tht { fill: white; } .fhl .bg { fill: #efefef; } .fhls .bg {  } .r.hl { stroke: black; } .dim { opacity: 0.25; }</style><g class="drawing-wrapper" transform="translate(-65.66666666666661, -38) scale(1,1)"><g class="rs"><path d="M 265.67 174.33333333333337 m -1, 0 a 1,1 0 1,0 2,0 a 1,1 0 1,0 -2,0 M 265.67 174.33333333333337 m -0.5, 0 a 0.5,0.5 0 1,0 1,0 a 0.5,0.5 0 1,0 -1,0  M265.67 174.33333333333337 L265.67 174.33333333333337 277.67 174.33333333333337 M 265.67 180.33333333333337 m -1, 0 a 1,1 0 1,0 2,0 a 1,1 0 1,0 -2,0 M 265.67 180.33333333333337 m -0.5, 0 a 0.5,0.5 0 1,0 1,0 a 0.5,0.5 0 1,0 -1,0  M265.67 180.33333333333337 L265.67 180.33333333333337 272.67 174.33333333333337 265.67 168.33333333333337 M 265.67 168.33333333333337 m -1, 0 a 1,1 0 1,0 2,0 a 1,1 0 1,0 -2,0 M 265.67 168.33333333333337 m -0.5, 0 a 0.5,0.5 0 1,0 1,0 a 0.5,0.5 0 1,0 -1,0  M277.67 174.33333333333337 Q 294.26 174.33333333333337, 310.84 174.67 T 344 175 M 356 175 m -1, 0 a 1,1 0 1,0 2,0 a 1,1 0 1,0 -2,0 M 356 175 m -0.5, 0 a 0.5,0.5 0 1,0 1,0 a 0.5,0.5 0 1,0 -1,0  M356 175 L356 175 344 175 M350 181 L350 181 350 169" id="h3649116682" class="r"></path></g><g class="hrs"></g><g class="ts"><svg width="178" height="125" x="87.66666666666661" y="117.33333333333336" id="h2044313445" class="t"><rect height="40" width="178" class="th"></rect><text x="13" y="25" class="tht">Usuário</text><rect height="85" width="178" class="t-bg" y="40"></rect><text x="13" y="61" class="tf pk">id<tspan x="165" class="ty">BIGINT</tspan></text><path d="M7,14A2,2 0 0,1 5,12A2,2 0 0,1 7,10A2,2 0 0,1 9,12A2,2 0 0,1 7,14M12.65,10C11.83,7.67 9.61,6 7, 6A6, 6 0 0, 0 1, 12A6, 6 0 0, 0 7, 18C9.61, 18 11.83, 16.33 12.65, 14H17V18H21V14H23V10H12.65Z" class="i pk" transform="translate(106, 48) scale(0.65)"></path><text x="13" y="86" class="tf">nome<tspan x="165" class="ty">VARCHAR(255)</tspan></text><text x="13" y="111" class="tf">email<tspan x="165" class="ty">VARCHAR(255)</tspan></text><path d="M22,18V22H18V19H15V16H12L9.74,13.74C9.19,13.91 8.61,14 8,14A6,6 0 0,1 2,8A6,6 0 0,1 8,2A6,6 0 0,1 14,8C14,8.61 13.91, 9.19 13.74, 9.74L22, 18M7, 5A2, 2 0 0, 0 5, 7A2, 2 0 0, 0 7, 9A2, 2 0 0, 0 9, 7A2, 2 0 0, 0 7, 5Z" class="i uq" transform="translate(64, 100.5) scale(0.5)"></path></svg><svg width="240" height="275" x="356" y="68" id="h1194599097" class="t"><rect height="40" width="240" class="th"></rect><text x="13" y="25" class="tht">Processamento</text><rect height="235" width="240" class="t-bg" y="40"></rect><text x="13" y="61" class="tf pk">id<tspan x="227" class="ty">BIGINT</tspan></text><path d="M7,14A2,2 0 0,1 5,12A2,2 0 0,1 7,10A2,2 0 0,1 9,12A2,2 0 0,1 7,14M12.65,10C11.83,7.67 9.61,6 7, 6A6, 6 0 0, 0 1, 12A6, 6 0 0, 0 7, 18C9.61, 18 11.83, 16.33 12.65, 14H17V18H21V14H23V10H12.65Z" class="i pk" transform="translate(168, 48) scale(0.65)"></path><text x="13" y="86" class="tf">nome_video<tspan x="227" class="ty">VARCHAR(255)</tspan></text><text x="13" y="111" class="tf fk">usuario_id<tspan x="227" class="ty">BIGINT</tspan></text><text x="13" y="136" class="tf">job_id<tspan x="227" class="ty">VARCHAR(255)?</tspan></text><path d="M22,18V22H18V19H15V16H12L9.74,13.74C9.19,13.91 8.61,14 8,14A6,6 0 0,1 2,8A6,6 0 0,1 8,2A6,6 0 0,1 14,8C14,8.61 13.91, 9.19 13.74, 9.74L22, 18M7, 5A2, 2 0 0, 0 5, 7A2, 2 0 0, 0 7, 9A2, 2 0 0, 0 9, 7A2, 2 0 0, 0 7, 5Z" class="i uq" transform="translate(119, 125.5) scale(0.5)"></path><text x="13" y="161" class="tf">status<tspan x="227" class="ty">ENUM(...)</tspan></text><text x="13" y="186" class="tf">mensagem_erro<tspan x="227" class="ty">VARCHAR(400)?</tspan></text><text x="13" y="211" class="tf">link_download<tspan x="227" class="ty">VARCHAR(400)?</tspan></text><text x="13" y="236" class="tf">timestamp_inicio<tspan x="227" class="ty">DATETIME</tspan></text><text x="13" y="261" class="tf">timestamp_conclusao<tspan x="227" class="ty">DATETIME?</tspan></text></svg></g></g><text class="qdbd-link" x="10" y="20">www.quickdatabasediagrams.com</text></svg>